<?xml version="1.0" encoding="utf-8"?>
<!-- Generator: Adobe Illustrator 25.2.3, SVG Export Plug-In . SVG Version: 6.00 Build 0)  -->
<svg version="1.1" id="Layer_1" xmlns="http://www.w3.org/2000/svg" xmlns:xlink="http://www.w3.org/1999/xlink" x="0px" y="0px"
	 viewBox="0 0 50 50" style="enable-background:new 0 0 50 50;" xml:space="preserve">
<style type="text/css">
	.st0{fill:#45B4E2;}
</style>
<g>
	<path class="st0" d="M25.2,42.8c0.2-0.3,0.3-0.5,0.6-0.8c6.2-6.3,12.4-12.5,18.6-18.8c0.3-0.3,0.8-0.6,1.2-0.8
		c0.8-0.3,1.5,0.3,1.5,1.1c0,2.1,0,4.2-0.1,6.3c0,0.4-0.3,1-0.7,1.3c-3.8,3.8-7.6,7.7-11.5,11.5c-2.1,2.1-4.3,4.3-6.4,6.5
		c-0.6,0.6-1.3,0.9-2.1,0.9c-1,0-1.9,0-2.9,0c-0.7,0-1.4-0.2-1.9-0.8c-6-6-12-12-18-18.1c-0.5-0.5-0.7-1.1-0.7-1.8
		c0-1.8,0-3.5,0-5.3c0-0.7,0.2-1.3,0.9-1.6c0.7-0.3,1.2,0,1.7,0.5c6.3,6.4,12.6,12.7,19,19.1c0.2,0.2,0.3,0.4,0.5,0.6
		C25,42.7,25.1,42.7,25.2,42.8z"/>
	<path class="st0" d="M25.2,20.6c0.2-0.3,0.3-0.5,0.5-0.7c6.2-6.3,12.4-12.6,18.7-18.8c0.3-0.3,0.6-0.6,0.9-0.8
		c0.9-0.5,1.8,0.1,1.8,1.1c0,1.9,0,3.8,0,5.8c0,0.7-0.2,1.2-0.7,1.7c-6.1,6-12.1,12.1-18.1,18.1c-0.5,0.5-1.1,0.7-1.8,0.7
		c-1,0-1.9,0-2.9,0c-0.8,0-1.5-0.3-2.1-0.8c-6-6-11.9-11.9-17.9-17.9C3.3,8.4,3,7.7,3,7.1c-0.1-1.8-0.1-3.7,0-5.5
		c0-0.4,0.2-1,0.5-1.3c0.4-0.5,1.2-0.4,1.8,0.2C6.1,1.4,7,2.2,7.8,3.1c5.6,5.7,11.2,11.4,16.8,17C24.8,20.2,24.9,20.3,25.2,20.6z"/>
</g>
</svg>
